# xmcd
#
# Track frame offsets:
#	150
#	24113
#	46739
#	68292
#	89427
#	116247
#	138093
#	167713
#	188681
#
# Disc length: 2787 seconds
#
# Revision: 0
# Processed by: cddbd v1.5.2PL0 Copyright (c) Steve Scherf et al.
# Submitted via: dBpowerAMP V4.0
#
DISCID=650ae109
DTITLE=Charles Walker With Mo Indigo and The Walker Horns - Poretta Soul Festival 2003
DYEAR=1900
DGENRE=Blues
TTITLE0=The Walk
TTITLE1=One Man's Poison
TTITLE2=Your Time To Cry
TTITLE3=Leaving This Old Town
TTITLE4=Make It Rain
TTITLE5=Snake Juice
TTITLE6=Number By Heart
TTITLE7=Turn On Your Love Light
TTITLE8=Higher And Higher
EXTD=
EXTT0=
EXTT1=
EXTT2=
EXTT3=
EXTT4=
EXTT5=
EXTT6=
EXTT7=
EXTT8=
PLAYORDER=
